<?xml version="1.0" encoding="utf-8"?>
<!-- Generator: Adobe Illustrator 24.1.3, SVG Export Plug-In . SVG Version: 6.00 Build 0)  -->
<svg version="1.1" id="Layer_1" xmlns="http://www.w3.org/2000/svg" xmlns:xlink="http://www.w3.org/1999/xlink" x="0px" y="0px"
	 viewBox="0 0 1920 1050.5" style="enable-background:new 0 0 1920 1050.5;" xml:space="preserve">
<style type="text/css">
	.st0{fill:none;}
	.st1{fill:#C09667;}
	.st2{clip-path:url(#SVGID_2_);fill:#F9EDDB;}
	.st3{clip-path:url(#SVGID_2_);fill:#F9E7C8;}
	.st4{clip-path:url(#SVGID_2_);}
	.st5{opacity:0.15;clip-path:url(#SVGID_4_);}
	.st6{clip-path:url(#SVGID_7_);fill:url(#SVGID_8_);}
	.st7{opacity:0.15;clip-path:url(#SVGID_11_);}
	.st8{clip-path:url(#SVGID_13_);fill:url(#SVGID_14_);}
	.st9{opacity:0.15;clip-path:url(#SVGID_17_);}
	.st10{clip-path:url(#SVGID_19_);fill:url(#SVGID_20_);}
	.st11{clip-path:url(#SVGID_2_);fill:none;}
</style>
<pattern  y="1080" width="55.6" height="55.1" patternUnits="userSpaceOnUse" id="SVGID_10_" viewBox="0 -55.1 55.6 55.1" style="overflow:visible;">
	<g>
		<rect y="-55.1" class="st0" width="55.6" height="55.1"/>
		<g>
			<rect y="-55.1" class="st0" width="55.6" height="55.1"/>
			<polygon class="st1" points="0,0 14.6,0 14.6,-6.2 0,-21.5 			"/>
			<polygon class="st1" points="27.7,-5.9 42.3,-20.9 42.3,-33.7 27.7,-49.2 13.2,-33.7 13.2,-20.9 			"/>
			<polygon class="st1" points="41,-6.2 41,0 55.6,0 55.6,-21.5 55.5,-21.6 			"/>
			<polygon class="st1" points="0,-55.1 0,-33.6 14.6,-48.4 14.6,-55.1 			"/>
			<polygon class="st1" points="41,-55.1 41,-48.4 55.5,-33.5 55.6,-33.6 55.6,-55.1 			"/>
		</g>
	</g>
</pattern>
<pattern  y="1080" width="55.6" height="55.1" patternUnits="userSpaceOnUse" id="SVGID_15_" viewBox="0 -55.1 55.6 55.1" style="overflow:visible;">
	<g>
		<rect y="-55.1" class="st0" width="55.6" height="55.1"/>
		<g>
			<rect y="-55.1" class="st0" width="55.6" height="55.1"/>
			<polygon class="st1" points="0,0 14.6,0 14.6,-6.2 0,-21.5 			"/>
			<polygon class="st1" points="27.7,-5.9 42.3,-20.9 42.3,-33.7 27.7,-49.2 13.2,-33.7 13.2,-20.9 			"/>
			<polygon class="st1" points="41,-6.2 41,0 55.6,0 55.6,-21.5 55.5,-21.6 			"/>
			<polygon class="st1" points="0,-55.1 0,-33.6 14.6,-48.4 14.6,-55.1 			"/>
			<polygon class="st1" points="41,-55.1 41,-48.4 55.5,-33.5 55.6,-33.6 55.6,-55.1 			"/>
		</g>
	</g>
</pattern>
<pattern  y="1080" width="55.6" height="55.1" patternUnits="userSpaceOnUse" id="SVGID_5_" viewBox="0 -55.1 55.6 55.1" style="overflow:visible;">
	<g>
		<rect y="-55.1" class="st0" width="55.6" height="55.1"/>
		<g>
			<rect y="-55.1" class="st0" width="55.6" height="55.1"/>
			<polygon class="st1" points="0,0 14.6,0 14.6,-6.2 0,-21.5 			"/>
			<polygon class="st1" points="27.7,-5.9 42.3,-20.9 42.3,-33.7 27.7,-49.2 13.2,-33.7 13.2,-20.9 			"/>
			<polygon class="st1" points="41,-6.2 41,0 55.6,0 55.6,-21.5 55.5,-21.6 			"/>
			<polygon class="st1" points="0,-55.1 0,-33.6 14.6,-48.4 14.6,-55.1 			"/>
			<polygon class="st1" points="41,-55.1 41,-48.4 55.5,-33.5 55.6,-33.6 55.6,-55.1 			"/>
		</g>
	</g>
</pattern>
<g>
	<defs>
		<rect id="SVGID_1_" x="0.9" y="0.3" width="1919" height="1050.3"/>
	</defs>
	<clipPath id="SVGID_2_">
		<use xlink:href="#SVGID_1_"  style="overflow:visible;"/>
	</clipPath>
	<rect class="st2" width="1920" height="1080"/>
	<rect class="st3" width="847.9" height="1080"/>
	<g class="st4">
		<g>
			<defs>
				<rect id="SVGID_3_" width="847.9" height="1080"/>
			</defs>
			<clipPath id="SVGID_4_">
				<use xlink:href="#SVGID_3_"  style="overflow:visible;"/>
			</clipPath>
			<g class="st5">
				<g>
					<g>
						<defs>
							<rect id="SVGID_6_" x="-10.7" y="-5.4" width="864" height="1296"/>
						</defs>
						<clipPath id="SVGID_7_">
							<use xlink:href="#SVGID_6_"  style="overflow:visible;"/>
						</clipPath>
						<pattern  id="SVGID_8_" xlink:href="#SVGID_5_" patternTransform="matrix(1 0 0 -1 3018.7898 -18201.0684)">
						</pattern>
						<rect x="-10.7" y="-5.4" class="st6" width="864" height="1296"/>
					</g>
				</g>
			</g>
		</g>
	</g>
	<rect x="828.9" class="st3" width="853.2" height="1080"/>
	<g class="st4">
		<g>
			<defs>
				<rect id="SVGID_9_" x="828.9" width="853.2" height="1080"/>
			</defs>
			<clipPath id="SVGID_11_">
				<use xlink:href="#SVGID_9_"  style="overflow:visible;"/>
			</clipPath>
			<g class="st7">
				<g>
					<g>
						<defs>
							<rect id="SVGID_12_" x="823.5" y="-5.4" width="864" height="1296"/>
						</defs>
						<clipPath id="SVGID_13_">
							<use xlink:href="#SVGID_12_"  style="overflow:visible;"/>
						</clipPath>
						<pattern  id="SVGID_14_" xlink:href="#SVGID_10_" patternTransform="matrix(1 0 0 -1 3019.1902 -18201.0684)">
						</pattern>
						<rect x="823.5" y="-5.4" class="st8" width="864" height="1296"/>
					</g>
				</g>
			</g>
		</g>
	</g>
	<rect x="1662.4" class="st3" width="257.6" height="1080"/>
	<g class="st4">
		<g>
			<defs>
				<rect id="SVGID_16_" x="1662.4" width="257.6" height="1080"/>
			</defs>
			<clipPath id="SVGID_17_">
				<use xlink:href="#SVGID_16_"  style="overflow:visible;"/>
			</clipPath>
			<g class="st9">
				<g>
					<g>
						<defs>
							<rect id="SVGID_18_" x="1657" y="-5.4" width="864" height="1296"/>
						</defs>
						<clipPath id="SVGID_19_">
							<use xlink:href="#SVGID_18_"  style="overflow:visible;"/>
						</clipPath>
						<pattern  id="SVGID_20_" xlink:href="#SVGID_15_" patternTransform="matrix(1 0 0 -1 3074.4802 -18201.0684)">
						</pattern>
						<rect x="1657" y="-5.4" class="st10" width="864" height="1296"/>
					</g>
				</g>
			</g>
		</g>
	</g>
	<rect class="st11" width="1920" height="1080"/>
	<rect class="st11" width="1920" height="1080"/>
	<rect class="st11" width="1920" height="1080"/>
	<rect class="st11" width="1920" height="1080"/>
	<rect class="st11" width="1920" height="1080"/>
</g>
</svg>
